<?xml version="1.0" encoding="UTF-8"?>
<svg width="600px" height="595px" viewBox="0 0 600 595" version="1.1" xmlns="http://www.w3.org/2000/svg" xmlns:xlink="http://www.w3.org/1999/xlink">
    <!-- Generator: sketchtool 62 (101010) - https://sketch.com -->
    <title>01C8FD3F-D20B-4F5C-9343-16DFC5E9A089</title>
    <desc>Created with sketchtool.</desc>
    <g id="Finals" stroke="none" stroke-width="1" fill="none" fill-rule="evenodd">
        <g id="The-Good-Badges-for-OSS-usage" transform="translate(-298.000000, -1233.000000)">
            <g id="RUNPKG-Copy" transform="translate(298.000000, 1223.000000)">
                <path d="M342.276968,19.4007702 L538.247998,106.565184 C575.801346,123.268242 600,160.515702 600,201.616141 L600,413.57732 C600,454.677759 575.801346,491.925219 538.247998,508.628277 L342.276968,595.79269 C315.36338,607.763373 284.63662,607.763373 257.723032,595.79269 L61.7520017,508.628277 C24.1986538,491.925219 2.32856136e-14,454.677759 0,413.57732 L0,201.616141 C2.33883573e-14,160.515702 24.1986538,123.268242 61.7520017,106.565184 L257.723032,19.4007702 C284.63662,7.43008735 315.36338,7.43008735 342.276968,19.4007702 Z" id="Polygon-Copy-4" fill="#80EAC7"></path>
                <text id="RUNPKG" font-family="Helvetica-Bold, Helvetica" font-size="51" font-weight="bold" line-spacing="51" letter-spacing="2" fill="#202020">
                    <tspan x="183.328691" y="473.011142">RUNPKG</tspan>
                </text>
                <path d="M552.892953,450.633608 C545.9017,461.395409 535.855806,470.172805 523.637242,475.608157 L327.904636,562.67859 C310.077675,570.608803 289.723751,570.606077 271.898915,562.671088 L76.3418836,475.615987 C64.1277808,470.178699 54.0860298,461.401503 47.0978044,450.641208 C40.109579,439.880913 36.1748793,427.137519 36.1748793,413.767836 L36.1748793,200.411805 C36.1748793,187.453102 39.9840349,175.099869 46.751078,164.664797 C53.5181211,154.229726 63.2430518,145.712815 75.0746019,140.426759 L271.861314,52.5071113 C289.711173,44.5322164 310.10913,44.5186853 327.969554,52.4698917 L523.654898,139.586219 C535.868709,145.023634 545.910189,153.800818 552.898216,164.561014 C559.886244,175.321211 563.820818,188.064421 563.820818,201.433888 L563.820818,413.752632 C563.820818,427.125603 559.884206,439.871808 552.892953,450.633608 Z" id="Polygon-Copy-5" stroke-opacity="0.3" stroke="#202020" stroke-width="24.2467521"></path>
                <path d="M573.140873,463.712451 C563.636714,478.341603 549.980021,490.272968 533.369887,497.660859 L337.398856,584.825272 C313.590683,595.414722 286.409317,595.414722 262.601144,584.825272 L66.6301133,497.660859 C50.0199787,490.272968 36.363286,478.341603 26.859127,463.712451 C17.354968,449.083299 12.0033426,431.75636 12.0033426,413.57732 L12.0033426,201.616141 C12.0033426,183.4371 17.354968,166.110161 26.859127,151.481009 C36.363286,136.851858 50.0199787,124.920493 66.6301133,117.532602 L262.601144,30.3681883 C286.409317,19.7787381 313.590683,19.7787381 337.398856,30.3681883 L533.369887,117.532602 C549.980021,124.920493 563.636714,136.851858 573.140873,151.481009 C582.645032,166.110161 587.996657,183.4371 587.996657,201.616141 L587.996657,413.57732 C587.996657,431.75636 582.645032,449.083299 573.140873,463.712451 Z" id="Polygon-Copy" stroke-opacity="0.6" stroke="#202020" stroke-width="24.0066852"></path>
                <g id="Badge-Copy-32" transform="translate(165.000000, 115.000000)" fill="#202020" font-family="Lato-Heavy, Lato" font-size="230" font-weight="600" letter-spacing="-5.47098002">
                    <text id="Rp">
                        <tspan x="0.418480019" y="227">Rp</tspan>
                    </text>
                </g>
            </g>
        </g>
    </g>
</svg>