<?xml version="1.0" encoding="UTF-8"?>
<svg width="1440px" height="801px" viewBox="0 0 1440 801" version="1.1" xmlns="http://www.w3.org/2000/svg" xmlns:xlink="http://www.w3.org/1999/xlink">
    <!-- Generator: sketchtool 61.2 (101010) - https://sketch.com -->
    <title>D14E610C-11E2-42B1-97AC-E7A379A42551</title>
    <desc>Created with sketchtool.</desc>
    <defs>
        <rect id="path-1" x="0" y="0" width="1440" height="801"></rect>
    </defs>
    <g id="Wireframe" stroke="none" stroke-width="1" fill="none" fill-rule="evenodd">
        <g id="Desktop-Essentials">
            <g id="Hed">
                <g id="Background">
                    <rect id="Rectangle" fill="#4A1B13" x="0" y="1" width="1440" height="800"></rect>
                    <mask id="mask-2" fill="white">
                        <use xlink:href="#path-1"></use>
                    </mask>
                    <g id="Rectangle"></g>
                    <g id="v2-Pattern" opacity="0.07" style="mix-blend-mode: multiply;" mask="url(#mask-2)">
                        <g transform="translate(-2353.000000, -295.000000)" id="Bg-Zigs">
                            <g transform="translate(779.000000, 0.000000)">
                                <polygon id="Fill-1-Copy-2" fill="#BC5240" points="2332.8 0 1944 278.2602 1555.2 0 1555.2 245.6892 1944 518.4 2332.8 245.6892"></polygon>
                                <polygon id="Fill-1-Copy-3" fill="#BC5240" points="3110.4 0 2721.6 278.2602 2332.8 0 2332.8 245.6892 2721.6 518.4 3110.4 245.6892"></polygon>
                            </g>
                            <g transform="translate(0.000000, 268.000000)">
                                <polygon id="Fill-1-Copy-4" fill="#BC5240" points="3888 0 3499.2 278.2602 3110.4 0 3110.4 245.6892 3499.2 518.4 3888 245.6892"></polygon>
                                <polygon id="Fill-1-Copy-3" fill="#BC5240" points="3110.4 0 2721.6 278.2602 2332.8 0 2332.8 245.6892 2721.6 518.4 3110.4 245.6892"></polygon>
                            </g>
                            <g transform="translate(0.000000, 537.000000)">
                                <polygon id="Fill-1-Copy-4" fill="#BC5240" points="3888 0 3499.2 278.2602 3110.4 0 3110.4 245.6892 3499.2 518.4 3888 245.6892"></polygon>
                                <polygon id="Fill-1-Copy-3" fill="#BC5240" points="3110.4 0 2721.6 278.2602 2332.8 0 2332.8 245.6892 2721.6 518.4 3110.4 245.6892"></polygon>
                            </g>
                            <g transform="translate(0.000000, 805.000000)">
                                <polygon id="Fill-1-Copy-4" fill="#BC5240" points="3888 0 3499.2 278.2602 3110.4 0 3110.4 245.6892 3499.2 518.4 3888 245.6892"></polygon>
                                <polygon id="Fill-1-Copy-3" fill="#BC5240" points="3110.4 0 2721.6 278.2602 2332.8 0 2332.8 245.6892 2721.6 518.4 3110.4 245.6892"></polygon>
                            </g>
                        </g>
                    </g>
                    <g id="v2-Pattern-Copy" opacity="0.07" style="mix-blend-mode: multiply;" mask="url(#mask-2)">
                        <g transform="translate(-2353.000000, -435.000000)" id="Bg-Zigs">
                            <g transform="translate(779.000000, 0.000000)">
                                <polygon id="Fill-1-Copy-2" fill="#BC5240" points="2332.8 0 1944 278.2602 1555.2 0 1555.2 245.6892 1944 518.4 2332.8 245.6892"></polygon>
                                <polygon id="Fill-1-Copy-3" fill="#BC5240" points="3110.4 0 2721.6 278.2602 2332.8 0 2332.8 245.6892 2721.6 518.4 3110.4 245.6892"></polygon>
                            </g>
                            <g transform="translate(0.000000, 268.000000)">
                                <polygon id="Fill-1-Copy-4" fill="#BC5240" points="3888 0 3499.2 278.2602 3110.4 0 3110.4 245.6892 3499.2 518.4 3888 245.6892"></polygon>
                                <polygon id="Fill-1-Copy-3" fill="#BC5240" points="3110.4 0 2721.6 278.2602 2332.8 0 2332.8 245.6892 2721.6 518.4 3110.4 245.6892"></polygon>
                            </g>
                            <g transform="translate(0.000000, 537.000000)">
                                <polygon id="Fill-1-Copy-4" fill="#BC5240" points="3888 0 3499.2 278.2602 3110.4 0 3110.4 245.6892 3499.2 518.4 3888 245.6892"></polygon>
                                <polygon id="Fill-1-Copy-3" fill="#BC5240" points="3110.4 0 2721.6 278.2602 2332.8 0 2332.8 245.6892 2721.6 518.4 3110.4 245.6892"></polygon>
                            </g>
                            <g transform="translate(0.000000, 805.000000)">
                                <polygon id="Fill-1-Copy-4" fill="#BC5240" points="3888 0 3499.2 278.2602 3110.4 0 3110.4 245.6892 3499.2 518.4 3888 245.6892"></polygon>
                                <polygon id="Fill-1-Copy-3" fill="#BC5240" points="3110.4 0 2721.6 278.2602 2332.8 0 2332.8 245.6892 2721.6 518.4 3110.4 245.6892"></polygon>
                            </g>
                            <g transform="translate(0.000000, 1075.000000)">
                                <polygon id="Fill-1-Copy-4" fill="#BC5240" points="3888 0 3499.2 278.2602 3110.4 0 3110.4 245.6892 3499.2 518.4 3888 245.6892"></polygon>
                                <polygon id="Fill-1-Copy-3" fill="#BC5240" points="3110.4 0 2721.6 278.2602 2332.8 0 2332.8 245.6892 2721.6 518.4 3110.4 245.6892"></polygon>
                            </g>
                        </g>
                    </g>
                </g>
            </g>
        </g>
    </g>
</svg>